<svg version="1.1" xmlns="http://www.w3.org/2000/svg" viewBox="0 0 134.3 43.9">
<path class="iwc-yellow" d="M132,22.9c-0.9,10-9.4,17.9-19.6,17.9c-10.9,0-19.7-8.8-19.7-19.7c0-10.9,8.8-19.7,19.7-19.7  c10.2,0,18.6,7.8,19.6,17.8h-19.6c-1.1,0-1.9,0.9-1.9,1.9c0,1.1,0.9,1.9,1.9,1.9L132,22.9L132,22.9z"/>
<polygon class="iwc-orange" points="42.6,2.9 60.9,41.9 66.6,29.6 54.2,2.9 "/>
<polygon class="iwc-orange" points="94.9,2.9 79.1,2.9 58.4,2.9 70.4,28.6 76.6,41.9 "/>
<rect x="2.2" y="2.9" class="iwc-red" width="36.4" height="10.2"/>
<rect x="2.2" y="16.8" class="iwc-red" width="36.4" height="22.2"/>


</svg>


